<svg id="visual" viewBox="0 0 1920 1080" width="1920" height="1080" xmlns="http://www.w3.org/2000/svg" xmlns:xlink="http://www.w3.org/1999/xlink" version="1.1"><rect x="0" y="0" width="1920" height="1080" fill="#020736"></rect><g transform="translate(1920 1080)"><path d="M386.9 -670.2C503.8 -602.7 602.7 -503.8 670.2 -386.9C737.7 -270 773.8 -135 773.8 0C773.8 135 737.7 270 670.2 386.9C602.7 503.8 503.8 602.7 386.9 670.2C270 737.7 135 773.8 0 773.8C-135 773.8 -270 737.7 -386.9 670.2C-503.8 602.7 -602.7 503.8 -670.2 386.9C-737.7 270 -773.8 135 -773.8 0C-773.8 -135 -737.7 -270 -670.2 -386.9C-602.7 -503.8 -503.8 -602.7 -386.9 -670.2C-270 -737.7 -135 -773.8 0 -773.8C135 -773.8 270 -737.7 386.9 -670.2" fill="#30B4C5"></path></g></svg>