<svg id="visual" viewBox="0 0 1920 1080" width="1920" height="1080" xmlns="http://www.w3.org/2000/svg" xmlns:xlink="http://www.w3.org/1999/xlink" version="1.1"><rect x="0" y="0" width="1920" height="1080" fill="#000756"></rect><defs><linearGradient id="grad1_0" x1="43.8%" y1="0%" x2="100%" y2="100%"><stop offset="14.444444444444446%" stop-color="#000756" stop-opacity="1"></stop><stop offset="85.55555555555554%" stop-color="#000756" stop-opacity="1"></stop></linearGradient></defs><defs><linearGradient id="grad2_0" x1="0%" y1="0%" x2="56.3%" y2="100%"><stop offset="14.444444444444446%" stop-color="#000756" stop-opacity="1"></stop><stop offset="85.55555555555554%" stop-color="#000756" stop-opacity="1"></stop></linearGradient></defs><g transform="translate(1920, 0)"><path d="M0 594C-65.7 593.5 -131.3 593.1 -183.6 564.9C-235.8 536.8 -274.5 481 -314.5 432.8C-354.4 384.7 -395.5 344.2 -406.1 295.1C-416.8 245.9 -397 188.1 -423.2 137.5C-449.5 86.9 -521.7 43.4 -594 0L0 0Z" fill="#029aaf"></path></g><g transform="translate(0, 1080)"><path d="M0 -594C48.5 -544.8 97 -495.7 157.3 -484.1C217.5 -472.5 289.5 -498.5 349.1 -480.6C408.8 -462.6 456.2 -400.8 461.9 -335.6C467.7 -270.4 431.9 -201.7 447 -145.2C462.1 -88.7 528 -44.4 594 0L0 0Z" fill="#029aaf"></path></g></svg>