<svg id="visual" viewBox="0 0 1920 1080" width="1920" height="1080" xmlns="http://www.w3.org/2000/svg" xmlns:xlink="http://www.w3.org/1999/xlink" version="1.1"><g stroke-width="1" stroke-linejoin="bevel"><path d="M969 535L1143 359L966 367Z" fill="#365a74" stroke="#365a74"></path><path d="M969 535L1144 547L1143 359Z" fill="#2788ba" stroke="#2788ba"></path><path d="M969 535L1144 709L1144 547Z" fill="#32749b" stroke="#32749b"></path><path d="M1339 356L1152 184L1143 359Z" fill="#208ec5" stroke="#208ec5"></path><path d="M1143 359L1152 184L966 367Z" fill="#36546a" stroke="#36546a"></path><path d="M1339 356L1143 359L1144 547Z" fill="#36546a" stroke="#36546a"></path><path d="M770 710L952 721L969 535Z" fill="#32749b" stroke="#32749b"></path><path d="M969 535L952 721L1144 709Z" fill="#208ec5" stroke="#208ec5"></path><path d="M1152 184L948 179L966 367Z" fill="#2f7aa5" stroke="#2f7aa5"></path><path d="M966 367L769 529L969 535Z" fill="#1695d0" stroke="#1695d0"></path><path d="M1354 548L1339 356L1144 547Z" fill="#2788ba" stroke="#2788ba"></path><path d="M764 358L769 529L966 367Z" fill="#2c81b0" stroke="#2c81b0"></path><path d="M948 179L764 358L966 367Z" fill="#208ec5" stroke="#208ec5"></path><path d="M1144 709L1354 548L1144 547Z" fill="#36617d" stroke="#36617d"></path><path d="M769 529L770 710L969 535Z" fill="#2788ba" stroke="#2788ba"></path><path d="M584 547L770 710L769 529Z" fill="#356787" stroke="#356787"></path><path d="M1524 177L1336 175L1339 356Z" fill="#1695d0" stroke="#1695d0"></path><path d="M1339 356L1336 175L1152 184Z" fill="#356787" stroke="#356787"></path><path d="M1152 184L970 0L948 179Z" fill="#1695d0" stroke="#1695d0"></path><path d="M772 0L778 176L948 179Z" fill="#36617d" stroke="#36617d"></path><path d="M948 179L778 176L764 358Z" fill="#365a74" stroke="#365a74"></path><path d="M1144 709L1345 729L1354 548Z" fill="#2c81b0" stroke="#2c81b0"></path><path d="M1150 905L1345 729L1144 709Z" fill="#36546a" stroke="#36546a"></path><path d="M1150 0L970 0L1152 184Z" fill="#36546a" stroke="#36546a"></path><path d="M1336 175L1150 0L1152 184Z" fill="#36617d" stroke="#36617d"></path><path d="M763 893L960 900L952 721Z" fill="#208ec5" stroke="#208ec5"></path><path d="M952 721L960 900L1144 709Z" fill="#356787" stroke="#356787"></path><path d="M960 900L1150 905L1144 709Z" fill="#36617d" stroke="#36617d"></path><path d="M574 182L583 365L764 358Z" fill="#356787" stroke="#356787"></path><path d="M764 358L583 365L769 529Z" fill="#365a74" stroke="#365a74"></path><path d="M583 365L584 547L769 529Z" fill="#208ec5" stroke="#208ec5"></path><path d="M770 710L763 893L952 721Z" fill="#36617d" stroke="#36617d"></path><path d="M1541 537L1535 361L1354 548Z" fill="#208ec5" stroke="#208ec5"></path><path d="M1354 548L1535 361L1339 356Z" fill="#346d91" stroke="#346d91"></path><path d="M1336 175L1335 0L1150 0Z" fill="#36546a" stroke="#36546a"></path><path d="M1542 719L1541 537L1354 548Z" fill="#2c81b0" stroke="#2c81b0"></path><path d="M1524 177L1335 0L1336 175Z" fill="#356787" stroke="#356787"></path><path d="M970 0L772 0L948 179Z" fill="#36617d" stroke="#36617d"></path><path d="M778 176L574 182L764 358Z" fill="#2c81b0" stroke="#2c81b0"></path><path d="M584 893L763 893L770 710Z" fill="#1695d0" stroke="#1695d0"></path><path d="M1150 905L1342 904L1345 729Z" fill="#36617d" stroke="#36617d"></path><path d="M1345 729L1542 719L1354 548Z" fill="#356787" stroke="#356787"></path><path d="M1535 361L1524 177L1339 356Z" fill="#2788ba" stroke="#2788ba"></path><path d="M582 0L574 182L778 176Z" fill="#36617d" stroke="#36617d"></path><path d="M383 540L565 708L584 547Z" fill="#36546a" stroke="#36546a"></path><path d="M1530 888L1542 719L1345 729Z" fill="#346d91" stroke="#346d91"></path><path d="M383 540L584 547L583 365Z" fill="#365a74" stroke="#365a74"></path><path d="M584 547L565 708L770 710Z" fill="#1695d0" stroke="#1695d0"></path><path d="M960 900L1142 1080L1150 905Z" fill="#36546a" stroke="#36546a"></path><path d="M1150 905L1335 1080L1342 904Z" fill="#2c81b0" stroke="#2c81b0"></path><path d="M962 1080L1142 1080L960 900Z" fill="#2788ba" stroke="#2788ba"></path><path d="M758 1080L960 900L763 893Z" fill="#365a74" stroke="#365a74"></path><path d="M758 1080L962 1080L960 900Z" fill="#36617d" stroke="#36617d"></path><path d="M1545 1080L1530 888L1342 904Z" fill="#2788ba" stroke="#2788ba"></path><path d="M1342 904L1530 888L1345 729Z" fill="#2788ba" stroke="#2788ba"></path><path d="M565 708L584 893L770 710Z" fill="#1695d0" stroke="#1695d0"></path><path d="M772 0L582 0L778 176Z" fill="#36546a" stroke="#36546a"></path><path d="M1719 0L1546 0L1524 177Z" fill="#36617d" stroke="#36617d"></path><path d="M1524 177L1546 0L1335 0Z" fill="#356787" stroke="#356787"></path><path d="M1718 355L1524 177L1535 361Z" fill="#356787" stroke="#356787"></path><path d="M1718 355L1535 361L1541 537Z" fill="#36546a" stroke="#36546a"></path><path d="M1723 539L1541 537L1542 719Z" fill="#2c81b0" stroke="#2c81b0"></path><path d="M1723 539L1718 355L1541 537Z" fill="#36617d" stroke="#36617d"></path><path d="M1735 730L1723 539L1542 719Z" fill="#2788ba" stroke="#2788ba"></path><path d="M373 350L383 540L583 365Z" fill="#32749b" stroke="#32749b"></path><path d="M565 708L381 727L584 893Z" fill="#356787" stroke="#356787"></path><path d="M373 350L583 365L392 190Z" fill="#1695d0" stroke="#1695d0"></path><path d="M1142 1080L1335 1080L1150 905Z" fill="#2788ba" stroke="#2788ba"></path><path d="M392 190L583 365L574 182Z" fill="#1695d0" stroke="#1695d0"></path><path d="M584 893L758 1080L763 893Z" fill="#2c81b0" stroke="#2c81b0"></path><path d="M376 0L392 190L574 182Z" fill="#208ec5" stroke="#208ec5"></path><path d="M1718 355L1736 184L1524 177Z" fill="#36546a" stroke="#36546a"></path><path d="M1920 366L1736 184L1718 355Z" fill="#356787" stroke="#356787"></path><path d="M202 721L381 727L383 540Z" fill="#2f7aa5" stroke="#2f7aa5"></path><path d="M383 540L381 727L565 708Z" fill="#2f7aa5" stroke="#2f7aa5"></path><path d="M584 893L575 1080L758 1080Z" fill="#36617d" stroke="#36617d"></path><path d="M1736 889L1542 719L1530 888Z" fill="#346d91" stroke="#346d91"></path><path d="M1736 889L1735 730L1542 719Z" fill="#2788ba" stroke="#2788ba"></path><path d="M1723 539L1920 366L1718 355Z" fill="#2788ba" stroke="#2788ba"></path><path d="M386 911L575 1080L584 893Z" fill="#36617d" stroke="#36617d"></path><path d="M1335 1080L1545 1080L1342 904Z" fill="#208ec5" stroke="#208ec5"></path><path d="M1736 184L1719 0L1524 177Z" fill="#365a74" stroke="#365a74"></path><path d="M1716 1080L1736 889L1530 888Z" fill="#36617d" stroke="#36617d"></path><path d="M1920 713L1920 530L1723 539Z" fill="#1695d0" stroke="#1695d0"></path><path d="M381 727L386 911L584 893Z" fill="#365a74" stroke="#365a74"></path><path d="M196 189L185 351L373 350Z" fill="#36546a" stroke="#36546a"></path><path d="M582 0L376 0L574 182Z" fill="#356787" stroke="#356787"></path><path d="M1920 713L1723 539L1735 730Z" fill="#208ec5" stroke="#208ec5"></path><path d="M1736 184L1920 0L1719 0Z" fill="#36546a" stroke="#36546a"></path><path d="M1920 530L1920 366L1723 539Z" fill="#356787" stroke="#356787"></path><path d="M196 189L373 350L392 190Z" fill="#32749b" stroke="#32749b"></path><path d="M373 350L181 540L383 540Z" fill="#365a74" stroke="#365a74"></path><path d="M381 727L184 903L386 911Z" fill="#365a74" stroke="#365a74"></path><path d="M185 351L181 540L373 350Z" fill="#356787" stroke="#356787"></path><path d="M181 540L202 721L383 540Z" fill="#356787" stroke="#356787"></path><path d="M376 0L196 189L392 190Z" fill="#356787" stroke="#356787"></path><path d="M1920 366L1920 186L1736 184Z" fill="#2788ba" stroke="#2788ba"></path><path d="M1920 907L1920 713L1736 889Z" fill="#36617d" stroke="#36617d"></path><path d="M1736 889L1920 713L1735 730Z" fill="#356787" stroke="#356787"></path><path d="M1545 1080L1716 1080L1530 888Z" fill="#36617d" stroke="#36617d"></path><path d="M386 911L373 1080L575 1080Z" fill="#2c81b0" stroke="#2c81b0"></path><path d="M201 1080L373 1080L386 911Z" fill="#36546a" stroke="#36546a"></path><path d="M1920 186L1920 0L1736 184Z" fill="#36546a" stroke="#36546a"></path><path d="M1920 1080L1920 907L1736 889Z" fill="#2f7aa5" stroke="#2f7aa5"></path><path d="M376 0L191 0L196 189Z" fill="#36546a" stroke="#36546a"></path><path d="M0 181L0 362L185 351Z" fill="#36617d" stroke="#36617d"></path><path d="M185 351L0 362L181 540Z" fill="#356787" stroke="#356787"></path><path d="M0 718L184 903L202 721Z" fill="#36546a" stroke="#36546a"></path><path d="M202 721L184 903L381 727Z" fill="#356787" stroke="#356787"></path><path d="M0 181L185 351L196 189Z" fill="#36617d" stroke="#36617d"></path><path d="M181 540L0 718L202 721Z" fill="#2f7aa5" stroke="#2f7aa5"></path><path d="M0 362L0 542L181 540Z" fill="#36546a" stroke="#36546a"></path><path d="M0 1080L201 1080L184 903Z" fill="#208ec5" stroke="#208ec5"></path><path d="M184 903L201 1080L386 911Z" fill="#2788ba" stroke="#2788ba"></path><path d="M1716 1080L1920 1080L1736 889Z" fill="#36546a" stroke="#36546a"></path><path d="M191 0L0 181L196 189Z" fill="#36546a" stroke="#36546a"></path><path d="M0 542L0 718L181 540Z" fill="#36617d" stroke="#36617d"></path><path d="M191 0L0 0L0 181Z" fill="#2c81b0" stroke="#2c81b0"></path><path d="M0 718L0 901L184 903Z" fill="#365a74" stroke="#365a74"></path><path d="M0 901L0 1080L184 903Z" fill="#2788ba" stroke="#2788ba"></path></g></svg>