<svg id="visual" viewBox="0 0 1920 1080" width="1920" height="1080" xmlns="http://www.w3.org/2000/svg" xmlns:xlink="http://www.w3.org/1999/xlink" version="1.1"><rect x="0" y="0" width="1920" height="1080" fill="#020736"></rect><path d="M1239 1080L1398 926L1276 771L1298 617L1422 463L1438 309L1388 154L1319 0L1920 0L1920 154L1920 309L1920 463L1920 617L1920 771L1920 926L1920 1080Z" fill="#0a26f5"></path><path d="M1517 1080L1497 926L1382 771L1360 617L1492 463L1424 309L1316 154L1430 0L1920 0L1920 154L1920 309L1920 463L1920 617L1920 771L1920 926L1920 1080Z" fill="#0061ff"></path><path d="M1404 1080L1445 926L1467 771L1419 617L1562 463L1440 309L1439 154L1603 0L1920 0L1920 154L1920 309L1920 463L1920 617L1920 771L1920 926L1920 1080Z" fill="#0088fc"></path><path d="M1688 1080L1663 926L1577 771L1691 617L1551 463L1621 309L1643 154L1562 0L1920 0L1920 154L1920 309L1920 463L1920 617L1920 771L1920 926L1920 1080Z" fill="#00a4e8"></path><path d="M1803 1080L1839 926L1810 771L1694 617L1704 463L1839 309L1688 154L1779 0L1920 0L1920 154L1920 309L1920 463L1920 617L1920 771L1920 926L1920 1080Z" fill="#30b4c5"></path></svg>