<svg id="visual" viewBox="0 0 1920 1080" width="1920" height="1080" xmlns="http://www.w3.org/2000/svg" xmlns:xlink="http://www.w3.org/1999/xlink" version="1.1"><rect x="0" y="0" width="1920" height="1080" fill="#22254a"></rect><defs><linearGradient id="grad1_0" x1="43.8%" y1="0%" x2="100%" y2="100%"><stop offset="14.444444444444446%" stop-color="#22254a" stop-opacity="1"></stop><stop offset="85.55555555555554%" stop-color="#22254a" stop-opacity="1"></stop></linearGradient></defs><defs><linearGradient id="grad2_0" x1="0%" y1="0%" x2="56.3%" y2="100%"><stop offset="14.444444444444446%" stop-color="#22254a" stop-opacity="1"></stop><stop offset="85.55555555555554%" stop-color="#22254a" stop-opacity="1"></stop></linearGradient></defs><g transform="translate(1920, 0)"><path d="M0 378C-32.9 354.8 -65.9 331.6 -105.1 323.4C-144.3 315.1 -189.8 321.7 -221.6 305C-253.4 288.3 -271.6 248.1 -294.5 214C-317.3 179.8 -344.8 151.5 -359.5 116.8C-374.2 82.1 -376.1 41.1 -378 0L0 0Z" fill="#029aaf"></path></g><g transform="translate(0, 1080)"><path d="M0 -378C44.4 -380.8 88.8 -383.6 116.8 -359.5C144.8 -335.4 156.3 -284.4 189.9 -261.3C223.4 -238.2 279 -243 303.4 -220.4C327.7 -197.8 320.9 -147.9 328.1 -106.6C335.3 -65.3 356.7 -32.7 378 0L0 0Z" fill="#029aaf"></path></g></svg>